<svg width="24" height="24" viewBox="0 0 24 24" fill="none" xmlns="http://www.w3.org/2000/svg">
<g clip-path="url(#clip0_11705_55479)">
<g opacity="0.3">
<circle cx="12" cy="12" r="12" transform="rotate(90 12 12)" fill="#FEAB09"/>
</g>
<path fill-rule="evenodd" clip-rule="evenodd" d="M10.0166 6.6V7.46664H8.6C8.26863 7.46664 8 7.73527 8 8.06664C8 8.39801 8.26863 8.66664 8.6 8.66664H9.46667V12.0999V12.1V15.5332H8.6C8.26863 15.5332 8 15.8019 8 16.1332C8 16.4646 8.26863 16.7332 8.6 16.7332H10.0166V17.6C10.0166 17.9313 10.2853 18.2 10.6166 18.2C10.948 18.2 11.2166 17.9313 11.2166 17.6V16.7332H12.5833V17.6C12.5833 17.9313 12.8519 18.2 13.1833 18.2C13.5147 18.2 13.7833 17.9313 13.7833 17.6V16.7323C14.6133 16.7014 15.8 15.9046 15.8 14.1532C15.8 13.2298 15.4662 12.5431 15.0242 12.0999C15.4662 11.6568 15.8 10.9701 15.8 10.0466C15.8 8.29533 14.6133 7.49853 13.7833 7.46758V6.6C13.7833 6.26863 13.5147 6 13.1833 6C12.8519 6 12.5833 6.26863 12.5833 6.6V7.46664H11.2166V6.6C11.2166 6.26863 10.948 6 10.6166 6C10.2853 6 10.0166 6.26863 10.0166 6.6ZM10.6667 12.7H13.7333L13.7365 12.7C13.8614 12.7048 14.6 12.984 14.6 14.1532C14.6 15.2998 13.8797 15.5332 13.7333 15.5332H10.6667V12.7ZM13.7365 11.4999C13.8614 11.4951 14.6 11.2159 14.6 10.0466C14.6 8.90009 13.8797 8.66664 13.7333 8.66664H10.6667V11.4999H13.7333L13.7365 11.4999Z" fill="white"/>
<path opacity="0.2" d="M12.5 22.5C11.1211 22.5 9.75574 22.2284 8.48182 21.7007C7.2079 21.1731 6.05039 20.3996 5.07537 19.4246C4.10036 18.4496 3.32693 17.2921 2.79926 16.0182C2.27159 14.7443 2 13.3789 2 12C2 10.6211 2.27159 9.25574 2.79926 7.98182C3.32694 6.7079 4.10036 5.55039 5.07538 4.57538C6.05039 3.60036 7.2079 2.82694 8.48182 2.29926C9.75574 1.77159 11.1211 1.5 12.5 1.5L12.5 12L12.5 22.5Z" fill="white"/>
</g>
<defs>
<clipPath id="clip0_11705_55479">
<rect width="24" height="24" fill="white"/>
</clipPath>
</defs>
</svg>
