<svg width="24" height="24" viewBox="0 0 24 24" fill="none" xmlns="http://www.w3.org/2000/svg">
    <g clip-path="url(#clip0_7944_20144)">
        <path fill-rule="evenodd" clip-rule="evenodd"
            d="M18.9981 13C19.4124 13.001 19.749 12.6661 19.75 12.2519C19.751 11.8376 19.4161 11.501 19.0019 11.5L6.66945 11.4695C6.45207 11.469 6.3389 11.2104 6.48598 11.0504L9.05234 8.25746C9.3326 7.95246 9.31255 7.47801 9.00754 7.19775C8.70254 6.91749 8.22809 6.93754 7.94783 7.24255L4.45967 11.0386C3.81576 11.7394 3.84988 12.8263 4.53647 13.4852L7.98074 16.7911C8.27958 17.0779 8.75435 17.0682 9.04118 16.7693C9.328 16.4705 9.31827 15.9957 9.01943 15.7089L6.61404 13.4002C6.45134 13.244 6.56226 12.9693 6.78777 12.9698L18.9981 13Z"
            fill="#7C7C80" />
    </g>
    <defs>
        <clipPath id="clip0_7944_20144">
            <rect width="24" height="24" fill="white" />
        </clipPath>
    </defs>
</svg>
