<?xml version="1.0" encoding="iso-8859-1"?>
<!-- Uploaded to: SVG Repo, www.svgrepo.com, Generator: SVG Repo Mixer Tools -->
<svg fill="#000000" height="800px" width="800px" version="1.1" id="Layer_1" xmlns="http://www.w3.org/2000/svg" xmlns:xlink="http://www.w3.org/1999/xlink" 
	 viewBox="0 0 512 512" xml:space="preserve">
<g>
	<g>
		<path d="M332.8,25.6H51.2C22.921,25.6,0,48.52,0,76.8v153.6c0,28.279,22.921,51.2,51.2,51.2h25.6v76.8l89.6-76.8h166.4
			c28.279,0,51.2-22.921,51.2-51.2V76.8C384,48.52,361.079,25.6,332.8,25.6z M358.4,230.4c0,14.114-11.486,25.6-25.6,25.6H166.4
			h-9.472l-7.185,6.161L102.4,302.737V281.6V256H76.8H51.2c-14.114,0-25.6-11.486-25.6-25.6V76.8c0-14.114,11.486-25.6,25.6-25.6
			h281.6c14.114,0,25.6,11.486,25.6,25.6V230.4z"/>
	</g>
</g>
<g>
	<g>
		<path d="M460.8,153.6h-51.2v25.6h51.2c14.114,0,25.6,11.486,25.6,25.6v153.6c0,14.114-11.486,25.6-25.6,25.6h-25.6h-25.6v25.6
			v21.137l-47.343-40.576L355.072,384H345.6H179.2c-14.114,0-25.6-11.486-25.6-25.6v-32.111L128,348.228V358.4
			c0,28.279,22.921,51.2,51.2,51.2h166.4l89.6,76.8v-76.8h25.6c28.279,0,51.2-22.921,51.2-51.2V204.8
			C512,176.521,489.079,153.6,460.8,153.6z"/>
	</g>
</g>
</svg>