<svg width="24" height="24" viewBox="0 0 24 24" fill="none" xmlns="http://www.w3.org/2000/svg">
<g clip-path="url(#clip0_1481_4174)">
<path fill-rule="evenodd" clip-rule="evenodd" d="M11.319 22H6.433C3.989 22 2 20.011 2 17.565V6.436C2 3.99 3.989 2 6.433 2H11.308C13.754 2 15.744 3.99 15.744 6.436V7.368C15.744 7.782 15.408 8.118 14.994 8.118C14.58 8.118 14.244 7.782 14.244 7.368V6.436C14.244 4.816 12.927 3.5 11.308 3.5H6.433C4.816 3.5 3.5 4.816 3.5 6.436V17.565C3.5 19.184 4.816 20.5 6.433 20.5H11.319C12.931 20.5 14.244 19.188 14.244 17.576V16.633C14.244 16.219 14.58 15.883 14.994 15.883C15.408 15.883 15.744 16.219 15.744 16.633V17.576C15.744 20.016 13.758 22 11.319 22Z" fill="#7C7C80"/>
<mask id="mask0_1481_4174" style="mask-type:luminance" maskUnits="userSpaceOnUse" x="8" y="11" width="15" height="2">
<path fill-rule="evenodd" clip-rule="evenodd" d="M8.99561 11.25H22.5365V12.75H8.99561V11.25Z" fill="white"/>
</mask>
<g mask="url(#mask0_1481_4174)">
<path fill-rule="evenodd" clip-rule="evenodd" d="M21.7866 12.75H9.74561C9.33161 12.75 8.99561 12.414 8.99561 12C8.99561 11.586 9.33161 11.25 9.74561 11.25H21.7866C22.2006 11.25 22.5366 11.586 22.5366 12C22.5366 12.414 22.2006 12.75 21.7866 12.75Z" fill="#7C7C80"/>
</g>
<mask id="mask1_1481_4174" style="mask-type:luminance" maskUnits="userSpaceOnUse" x="18" y="8" width="5" height="8">
<path fill-rule="evenodd" clip-rule="evenodd" d="M18.1094 8.33496H22.5367V15.6657H18.1094V8.33496Z" fill="white"/>
</mask>
<g mask="url(#mask1_1481_4174)">
<path fill-rule="evenodd" clip-rule="evenodd" d="M18.8591 15.6657C18.6671 15.6657 18.4741 15.5927 18.3281 15.4447C18.0361 15.1507 18.0371 14.6767 18.3301 14.3847L20.7241 11.9997L18.3301 9.61571C18.0371 9.32371 18.0351 8.84971 18.3281 8.55571C18.6201 8.26171 19.0941 8.26171 19.3881 8.55371L22.3161 11.4687C22.4581 11.6087 22.5371 11.8007 22.5371 11.9997C22.5371 12.1987 22.4581 12.3907 22.3161 12.5307L19.3881 15.4467C19.2421 15.5927 19.0501 15.6657 18.8591 15.6657Z" fill="#7C7C80"/>
</g>
</g>
<defs>
<clipPath id="clip0_1481_4174">
<rect width="24" height="24" fill="white"/>
</clipPath>
</defs>
</svg>
