<svg width="24" height="24" viewBox="0 0 24 24" fill="none" xmlns="http://www.w3.org/2000/svg">
<g clip-path="url(#clip0_11705_55427)">
<ellipse opacity="0.3" cx="12" cy="12" rx="12" ry="12" transform="rotate(-90 12 12)" fill="#4AB4C2"/>
<path opacity="0.2" d="M4.02136 3.42139L23.2735 8.63079L9.23076 22.6735L4.02136 3.42139Z" fill="white"/>
<path d="M7.34342 15.1179C7.42804 15.0424 7.54175 15 7.66074 15H18.6744C18.8754 15 18.9759 15.2169 18.8331 15.3418L16.6568 17.2821C16.5722 17.3576 16.4584 17.4 16.3395 17.4H5.3258C5.12483 17.4 5.02434 17.1831 5.16714 17.0582L7.34342 15.1179Z" fill="white"/>
<path d="M7.34342 6.71797C7.42804 6.64245 7.54175 6.59998 7.66074 6.59998H18.6744C18.8754 6.59998 18.9759 6.81708 18.8331 6.94216L16.6568 8.88198C16.5722 8.9575 16.4584 8.99998 16.3395 8.99998H5.3258C5.12483 8.99998 5.02434 8.78287 5.16714 8.65779L7.34342 6.71797Z" fill="white"/>
<path d="M16.6568 10.9179C16.5722 10.8424 16.4584 10.7999 16.3395 10.7999H5.3258C5.12483 10.7999 5.02434 11.017 5.16714 11.1421L7.34342 13.0819C7.42804 13.1575 7.54175 13.1999 7.66074 13.1999H18.6744C18.8754 13.1999 18.9759 12.9828 18.8331 12.8577L16.6568 10.9179Z" fill="white"/>
</g>
<defs>
<clipPath id="clip0_11705_55427">
<rect width="24" height="24" fill="white"/>
</clipPath>
</defs>
</svg>
