<?xml version="1.0" encoding="UTF-8"?>
<svg xmlns="http://www.w3.org/2000/svg" xmlns:xlink="http://www.w3.org/1999/xlink" width="4713" height="3361" viewBox="0 0 4713 3361">
<path fill-rule="evenodd" fill="rgb(100%, 100%, 100%)" fill-opacity="1" d="M 0.214844 0.488281 L 4712.480469 0.488281 L 4712.480469 3360.476562 L 0.214844 3360.476562 L 0.214844 0.488281 "/>
<path fill-rule="evenodd" fill="rgb(97.65625%, 70.506287%, 14.109802%)" fill-opacity="1" d="M 2356.351562 235.28125 C 3154.519531 235.28125 3801.558594 882.320312 3801.558594 1680.480469 C 3801.558594 2478.648438 3154.519531 3125.691406 2356.351562 3125.691406 C 1558.179688 3125.691406 911.144531 2478.648438 911.144531 1680.480469 C 911.144531 882.320312 1558.179688 235.28125 2356.351562 235.28125 "/>
<path fill-rule="evenodd" fill="rgb(58.006287%, 60.742188%, 56.054688%)" fill-opacity="1" d="M 3416.191406 2662.867188 C 3152.25 2947.492188 2775.140625 3125.691406 2356.351562 3125.691406 C 1934.980469 3125.691406 1555.78125 2945.3125 1291.621094 2657.617188 C 1363.070312 2609.46875 1483.179688 2535.671875 1586.519531 2506.800781 C 1745.53125 2462.367188 1847.261719 2451.84375 1847.261719 2451.84375 C 1847.261719 2451.84375 1951.910156 2317.96875 1988.160156 2296.921875 C 2024.410156 2275.871094 2051.878906 2277.628906 2051.878906 2277.628906 L 2058.320312 2133.21875 C 2058.320312 2133.21875 1962.441406 2039.691406 1909.828125 1964.851562 C 1857.210938 1890.019531 1852.53125 1868.96875 1852.53125 1868.96875 C 1852.53125 1868.96875 1764.839844 1776.601562 1732.101562 1723.980469 C 1699.359375 1671.359375 1699.359375 1656.160156 1699.359375 1656.160156 C 1699.359375 1656.160156 1631.539062 1590.691406 1621.011719 1494.808594 C 1610.488281 1398.929688 1672.460938 1353.328125 1672.460938 1353.328125 C 1672.460938 1353.328125 1548.519531 898.480469 1693.511719 725.429688 C 1838.5 552.378906 1992.839844 526.660156 1992.839844 526.660156 C 1992.839844 526.660156 2198.628906 241.359375 2533.039062 367.640625 C 2867.449219 493.921875 2965.671875 760.511719 2977.359375 968.640625 C 2989.058594 1176.769531 2982.039062 1522.871094 2918.898438 1679.550781 C 2855.761719 1836.230469 2710.78125 1899.371094 2710.78125 1899.371094 C 2710.78125 1899.371094 2671.019531 1988.238281 2634.769531 2038.519531 C 2598.53125 2088.789062 2563.441406 2113.351562 2563.441406 2113.351562 L 2563.441406 2287.570312 C 2563.441406 2287.570312 2603.199219 2278.210938 2659.328125 2337.839844 C 2715.449219 2397.476562 2757.550781 2458.277344 2757.550781 2458.277344 C 2757.550781 2458.277344 3218.230469 2492.195312 3358.550781 2613.796875 C 3377.71875 2630.417969 3397.078125 2646.859375 3416.191406 2662.867188 "/>
<path fill-rule="evenodd" fill="rgb(47.851562%, 49.414062%, 45.092773%)" fill-opacity="1" d="M 1847.261719 2451.84375 C 1847.261719 2451.84375 1951.910156 2317.96875 1988.160156 2296.921875 C 2024.410156 2275.871094 2051.878906 2277.628906 2051.878906 2277.628906 L 2056.429688 2175.730469 C 2120.871094 2149.46875 2191.730469 2126.269531 2264.691406 2112.191406 C 2369.910156 2091.890625 2476.210938 2119.320312 2563.441406 2168.71875 L 2563.441406 2287.570312 C 2563.441406 2287.570312 2603.199219 2278.210938 2659.328125 2337.839844 C 2715.449219 2397.476562 2757.550781 2458.277344 2757.550781 2458.277344 C 2710.199219 2600.914062 2547.648438 2911.96875 2456.449219 2951.722656 C 2365.25 2991.476562 2306.78125 2858.179688 2306.78125 2858.179688 C 2306.78125 2858.179688 2243.648438 2970.429688 2133.730469 2949.382812 C 2023.828125 2928.335938 1847.261719 2451.84375 1847.261719 2451.84375 "/>
<path fill-rule="evenodd" fill="rgb(98.4375%, 70.506287%, 47.459412%)" fill-opacity="1" d="M 2051.878906 2277.628906 L 2058.320312 2133.21875 C 2058.320312 2133.21875 1962.441406 2039.691406 1909.828125 1964.851562 C 1857.210938 1890.019531 1852.53125 1868.96875 1852.53125 1868.96875 C 1852.53125 1868.96875 1764.839844 1776.601562 1732.101562 1723.980469 C 1699.359375 1671.359375 1699.359375 1656.160156 1699.359375 1656.160156 C 1699.359375 1656.160156 1631.539062 1590.691406 1621.011719 1494.808594 C 1610.488281 1398.929688 1672.460938 1353.328125 1672.460938 1353.328125 C 1672.460938 1353.328125 1548.519531 898.480469 1693.511719 725.429688 C 1724.011719 689.019531 1754.929688 659.160156 1784.730469 634.660156 C 2126.230469 596.78125 2635.449219 726.398438 2969.921875 896.570312 C 2973.628906 921.140625 2976.050781 945.261719 2977.359375 968.640625 C 2989.058594 1176.769531 2982.039062 1522.871094 2918.898438 1679.550781 C 2855.761719 1836.230469 2710.78125 1899.371094 2710.78125 1899.371094 C 2710.78125 1899.371094 2671.019531 1988.238281 2634.769531 2038.519531 C 2598.53125 2088.789062 2563.441406 2113.351562 2563.441406 2113.351562 L 2563.441406 2287.570312 C 2563.441406 2287.570312 2338.359375 2602.101562 2289.25 2572.871094 C 2240.140625 2543.636719 2051.878906 2277.628906 2051.878906 2277.628906 "/>
<path fill-rule="evenodd" fill="rgb(79.6875%, 56.054688%, 36.473083%)" fill-opacity="1" d="M 2563.441406 2113.351562 L 2563.441406 2287.570312 C 2563.441406 2287.570312 2560.199219 2292.101562 2554.460938 2299.960938 C 2502.089844 2319.710938 2434 2339.621094 2373.429688 2339.019531 C 2254.171875 2337.851562 2141.921875 2147.261719 2141.921875 2147.261719 C 2141.921875 2147.261719 2222.601562 2218.589844 2357.058594 2194.03125 C 2491.53125 2169.480469 2563.441406 2113.351562 2563.441406 2113.351562 "/>
<path fill-rule="evenodd" fill="rgb(25.488281%, 25.488281%, 26.268005%)" fill-opacity="1" d="M 1852.53125 1868.96875 C 1852.53125 1868.96875 1764.839844 1776.601562 1732.101562 1723.980469 C 1699.359375 1671.359375 1699.359375 1656.160156 1699.359375 1656.160156 C 1756.648438 1677.199219 1819.789062 1660.851562 1819.789062 1660.851562 C 1819.789062 1660.851562 1819.789062 1674.878906 1826.808594 1746.199219 C 1833.828125 1817.53125 1852.53125 1868.96875 1852.53125 1868.96875 Z M 1672.460938 1353.328125 C 1672.460938 1353.328125 1548.519531 898.480469 1693.511719 725.429688 C 1838.5 552.378906 1992.839844 526.660156 1992.839844 526.660156 C 1992.839844 526.660156 2198.628906 241.359375 2533.039062 367.640625 C 2867.449219 493.921875 2965.671875 760.511719 2977.359375 968.640625 C 2989.058594 1176.769531 2982.039062 1522.871094 2918.898438 1679.550781 C 2855.761719 1836.230469 2710.78125 1899.371094 2710.78125 1899.371094 C 2727.71875 1843.238281 2741.761719 1658.511719 2741.761719 1658.511719 C 2741.761719 1658.511719 2809.578125 1707.621094 2857.519531 1619.921875 C 2905.460938 1532.230469 2911.300781 1390.75 2861.03125 1340.46875 C 2810.75 1290.199219 2751.109375 1394.261719 2751.109375 1394.261719 C 2751.109375 1394.261719 2747.601562 1315.921875 2744.089844 1282.011719 C 2740.589844 1248.101562 2687.96875 1221.210938 2471.660156 1175.609375 C 2255.339844 1130 2083.46875 889.140625 2083.46875 889.140625 C 2083.46875 889.140625 2034.359375 900.828125 1967.710938 928.890625 C 1901.058594 956.949219 1823.890625 1032.949219 1823.890625 1032.949219 L 1813.949219 1393.671875 C 1813.949219 1393.671875 1788.21875 1372.039062 1758.988281 1354.5 C 1729.761719 1336.960938 1672.460938 1353.328125 1672.460938 1353.328125 "/>
</svg>
