<?xml version="1.0" encoding="UTF-8"?>
<svg xmlns="http://www.w3.org/2000/svg" width="4714" height="3361" viewBox="0 0 4714 3361">
<path fill-rule="evenodd" fill="rgb(97.65625%, 70.896912%, 10.984802%)" fill-opacity="1" d="M 2357.121094 261.441406 C 3141.050781 261.441406 3776.539062 896.941406 3776.539062 1680.859375 C 3776.539062 2464.785156 3141.050781 3100.28125 2357.121094 3100.28125 C 1573.199219 3100.28125 937.703125 2464.785156 937.703125 1680.859375 C 937.703125 896.941406 1573.199219 261.441406 2357.121094 261.441406 "/>
<path fill-rule="evenodd" fill="rgb(12.939453%, 10.594177%, 30.979919%)" fill-opacity="1" d="M 3531.480469 2478.296875 C 3276.078125 2853.703125 2845.410156 3100.28125 2357.121094 3100.28125 C 1845.839844 3100.28125 1397.761719 2829.910156 1147.878906 2424.390625 C 1204.089844 2398.730469 1268.398438 2368.359375 1318.410156 2341.878906 C 1431.53125 2282 1509.148438 2268.691406 1509.148438 2268.691406 C 1509.148438 2268.691406 1560.160156 2202.148438 1628.910156 2166.671875 C 1697.671875 2131.179688 1921.660156 1993.679688 1921.660156 1993.679688 C 1921.660156 1993.679688 1876.191406 1902.75 1861.78125 1845.089844 C 1847.371094 1787.421875 1846.261719 1784.101562 1846.261719 1784.101562 C 1846.261719 1784.101562 1702.078125 1775.21875 1692.101562 1641.050781 C 1682.121094 1506.859375 1746.441406 1463.621094 1746.441406 1463.621094 C 1746.441406 1463.621094 1689.839844 1123.191406 1741.96875 971.261719 C 1794.089844 819.339844 1868.378906 749.480469 1929.371094 750.589844 C 1990.359375 751.691406 2004.78125 756.128906 2004.78125 756.128906 C 2004.78125 756.128906 2042.449219 687.378906 2101.230469 623.070312 C 2160 558.75 2223.21875 546.558594 2223.21875 546.558594 C 2223.21875 546.558594 2143.371094 596.460938 2107.878906 658.558594 C 2072.398438 720.648438 2054.660156 751.710938 2054.660156 751.710938 C 2054.660156 751.710938 2196.601562 559.859375 2410.628906 541.011719 C 2624.648438 522.160156 3022.71875 756.148438 3011.628906 964.628906 C 3000.550781 1173.101562 2834.210938 1582.300781 2834.210938 1582.300781 C 2834.210938 1582.300781 2891.871094 1688.75 2841.96875 1783.019531 C 2792.058594 1877.28125 2676.730469 1845.121094 2676.730469 1845.121094 L 2657.878906 1900.558594 C 2657.878906 1900.558594 2716.648438 1912.761719 2734.390625 1989.269531 C 2752.140625 2065.789062 2741.050781 2111.25 2741.050781 2111.25 C 2741.050781 2111.25 3236.71875 2234.359375 3411.929688 2378.515625 C 3458.039062 2416.453125 3497.851562 2449.78125 3531.480469 2478.296875 "/>
<path fill-rule="evenodd" fill="rgb(22.75238%, 11.767578%, 35.693359%)" fill-opacity="1" d="M 2227.46875 3094.390625 C 1992.199219 3073.074219 1773.519531 2994.363281 1585.53125 2872.34375 L 1519.558594 2256.160156 C 1537.859375 2235.160156 1578.640625 2192.609375 1628.910156 2166.671875 C 1697.671875 2131.179688 1921.660156 1993.679688 1921.660156 1993.679688 C 1921.660156 1993.679688 1876.191406 1902.75 1861.78125 1845.089844 C 1847.371094 1787.421875 1846.261719 1784.101562 1846.261719 1784.101562 C 1846.261719 1784.101562 1783.609375 1780.230469 1738.050781 1739.171875 C 2043.679688 1642.949219 2652.089844 1718.53125 2810.789062 1770.851562 C 2822.488281 1774.699219 2832.53125 1779.28125 2841.191406 1784.429688 C 2790.878906 1876.929688 2676.730469 1845.121094 2676.730469 1845.121094 L 2657.878906 1900.558594 C 2657.878906 1900.558594 2716.648438 1912.761719 2734.390625 1989.269531 C 2752.140625 2065.789062 2741.050781 2111.25 2741.050781 2111.25 C 2741.050781 2111.25 2750.921875 2391.839844 2577.929688 2602.535156 C 2462.640625 2742.945312 2313.890625 2963.105469 2227.46875 3094.390625 "/>
<path fill-rule="evenodd" fill="rgb(91.796875%, 89.84375%, 85.9375%)" fill-opacity="1" d="M 2103.398438 3077.640625 C 1987.640625 3056.742188 1876.75 3021.824219 1772.578125 2974.671875 C 1772.871094 2719.148438 1773.96875 2451.570312 1777.289062 2400.703125 C 1783.941406 2298.679688 1929.171875 2192.351562 1929.171875 2192.351562 L 2039 2207.75 L 2405.03125 2321.398438 C 2405.03125 2321.398438 2351.710938 2345.261719 2305.128906 2405.140625 C 2277.691406 2440.410156 2179.5 2793.402344 2103.398438 3077.640625 "/>
<path fill-rule="evenodd" fill="rgb(98.4375%, 70.506287%, 47.459412%)" fill-opacity="1" d="M 1921.660156 1993.679688 C 1921.660156 1993.679688 1876.191406 1902.75 1861.78125 1845.089844 C 1847.371094 1787.421875 1846.261719 1784.101562 1846.261719 1784.101562 C 1846.261719 1784.101562 1702.078125 1775.21875 1692.101562 1641.050781 C 1682.121094 1506.859375 1746.441406 1463.621094 1746.441406 1463.621094 C 1746.441406 1463.621094 1689.839844 1123.191406 1741.96875 971.261719 C 1794.089844 819.339844 1868.378906 749.480469 1929.371094 750.589844 C 1990.359375 751.691406 2004.78125 756.128906 2004.78125 756.128906 C 2004.78125 756.128906 2042.449219 687.378906 2101.230469 623.070312 C 2129.480469 592.148438 2158.75 573.28125 2181.539062 562.019531 C 2187.851562 562.101562 2194.160156 562.179688 2200.488281 562.320312 C 2174.140625 581.820312 2131.328125 617.519531 2107.878906 658.558594 C 2072.398438 720.648438 2054.660156 751.710938 2054.660156 751.710938 C 2054.660156 751.710938 2149.199219 623.949219 2300.289062 566.710938 C 2435.808594 575.371094 2571.878906 594.019531 2693.070312 609.539062 C 2862.800781 691.480469 3018.628906 833.121094 3011.628906 964.628906 C 3000.550781 1173.101562 2834.210938 1582.300781 2834.210938 1582.300781 C 2834.210938 1582.300781 2891.871094 1688.75 2841.96875 1783.019531 C 2792.058594 1877.28125 2676.730469 1845.121094 2676.730469 1845.121094 L 2657.878906 1900.558594 C 2657.878906 1900.558594 2656.691406 1993.71875 2623.421875 2085.761719 C 2590.148438 2177.800781 2359.5 2358.558594 2359.5 2358.558594 C 2359.5 2358.558594 1965.828125 2302.011719 1942.539062 2255.429688 C 1919.25 2208.851562 1921.660156 1993.679688 1921.660156 1993.679688 "/>
<path fill-rule="evenodd" fill="rgb(79.6875%, 55.664062%, 36.083984%)" fill-opacity="1" d="M 2654.78125 1944.46875 C 2650.960938 1980.199219 2642.441406 2033.160156 2623.421875 2085.761719 C 2590.148438 2177.800781 2359.5 2358.558594 2359.5 2358.558594 C 2359.5 2358.558594 1965.828125 2302.011719 1942.539062 2255.429688 C 1919.25 2208.851562 1921.660156 1993.679688 1921.660156 1993.679688 C 1921.660156 1993.679688 2032.351562 2234.371094 2238.609375 2245.460938 C 2444.808594 2256.539062 2654.640625 1944.671875 2654.78125 1944.46875 "/>
<path fill-rule="evenodd" fill="rgb(13.719177%, 10.205078%, 30.979919%)" fill-opacity="1" d="M 1746.179688 1462.089844 C 1742.25 1437.738281 1691.839844 1117.371094 1741.96875 971.261719 C 1794.089844 819.339844 1868.378906 749.480469 1929.371094 750.589844 C 1990.359375 751.691406 2004.78125 756.128906 2004.78125 756.128906 C 2004.78125 756.128906 2042.449219 687.378906 2101.230469 623.070312 C 2160 558.75 2223.21875 546.558594 2223.21875 546.558594 C 2223.21875 546.558594 2143.371094 596.460938 2107.878906 658.558594 C 2072.398438 720.648438 2054.660156 751.710938 2054.660156 751.710938 C 2054.660156 751.710938 2196.601562 559.859375 2410.628906 541.011719 C 2624.648438 522.160156 3022.71875 756.148438 3011.628906 964.628906 C 3001.339844 1158.171875 2857.269531 1524.640625 2836.679688 1576.160156 C 2799.078125 1569.050781 2739.890625 1654.410156 2739.890625 1654.410156 C 2739.890625 1654.410156 2729.910156 1478.089844 2711.070312 1421.53125 C 2692.21875 1364.980469 2697.78125 1225.238281 2697.78125 1225.238281 C 2697.78125 1225.238281 2651.199219 1257.398438 2488.191406 1234.109375 C 2325.179688 1210.820312 2198.761719 1066.671875 2198.761719 1066.671875 C 2198.761719 1066.671875 2250.878906 1201.949219 2363.988281 1249.640625 C 2477.089844 1297.320312 2599.078125 1258.511719 2599.078125 1258.511719 C 2599.078125 1258.511719 2539.199219 1317.28125 2363.988281 1284.011719 C 2188.78125 1250.738281 2050.179688 1037.828125 2050.179688 1037.828125 C 2050.179688 1037.828125 1975.878906 1077.761719 1948.148438 1104.371094 C 1920.429688 1130.988281 1950.371094 1160.921875 1948.148438 1200.851562 C 1945.929688 1240.769531 1938.171875 1295.101562 1891.601562 1342.789062 C 1845.03125 1390.46875 1832.828125 1585.628906 1832.828125 1585.628906 C 1832.828125 1585.628906 1820.628906 1567.890625 1780.710938 1508.011719 C 1751.058594 1463.550781 1746.550781 1460.640625 1746.179688 1462.089844 "/>
</svg>
