<?xml version="1.0" encoding="UTF-8"?>
<svg xmlns="http://www.w3.org/2000/svg" xmlns:xlink="http://www.w3.org/1999/xlink" width="4713" height="3361" viewBox="0 0 4713 3361">

<path fill-rule="evenodd" fill="rgb(97.65625%, 70.896912%, 10.984802%)" fill-opacity="1" d="M 2356.46875 277.089844 C 3131.789062 277.089844 3760.308594 905.609375 3760.308594 1680.929688 C 3760.308594 2456.253906 3131.789062 3084.773438 2356.46875 3084.773438 C 1581.148438 3084.773438 952.632812 2456.253906 952.632812 1680.929688 C 952.632812 905.609375 1581.148438 277.089844 2356.46875 277.089844 "/>
<path fill-rule="evenodd" fill="rgb(98.4375%, 70.506287%, 47.459412%)" fill-opacity="1" d="M 3341.53125 2681.03125 C 3088.101562 2930.667969 2740.308594 3084.773438 2356.46875 3084.773438 C 1946.441406 3084.773438 1577.5 2908.9375 1320.828125 2628.613281 C 1382.859375 2570.871094 1481.03125 2489.332031 1596.070312 2429.308594 C 1793.921875 2326.089844 2055.421875 2319.210938 2055.421875 2319.210938 L 2079.5 2236.628906 C 2079.5 2236.628906 1627.03125 2284.800781 1554.769531 1985.449219 C 1482.511719 1686.101562 1592.621094 1631.050781 1623.578125 1235.359375 C 1654.550781 839.671875 1816.269531 395.820312 2384 464.628906 C 2951.730469 533.449219 3192.601562 1145.921875 3240.761719 1534.730469 C 3288.929688 1923.539062 3182.28125 2099.019531 3027.441406 2136.871094 C 2872.601562 2174.71875 2650.671875 2183.320312 2650.671875 2183.320312 L 2650.660156 2284.839844 C 2650.660156 2284.839844 3215.75 2493.40625 3341.53125 2681.03125 "/>
<path fill-rule="evenodd" fill="rgb(79.6875%, 56.054688%, 36.473083%)" fill-opacity="1" d="M 2074.78125 2252.851562 L 2079.5 2236.628906 C 2079.5 2236.628906 2034.75 2241.390625 1971.171875 2238.609375 L 1857.480469 2087.019531 C 1879.839844 2080.140625 2090.851562 2040.351562 2090.851562 2040.351562 C 2090.851562 2040.351562 2120.699219 2069.808594 2273.820312 2001 C 2426.929688 1932.179688 2463.058594 1865.078125 2463.058594 1865.078125 C 2463.058594 1865.078125 2383.929688 2093.890625 2222.199219 2183.359375 C 2158.578125 2218.558594 2110.128906 2239.898438 2074.78125 2252.851562 "/>
<path fill-rule="evenodd" fill="rgb(33.738708%, 73.242188%, 99.21875%)" fill-opacity="1" d="M 3341.53125 2681.03125 C 3088.101562 2930.667969 2740.308594 3084.773438 2356.46875 3084.773438 C 1946.441406 3084.773438 1577.5 2908.9375 1320.828125 2628.613281 C 1382.859375 2570.871094 1481.03125 2489.332031 1596.070312 2429.308594 C 1685.628906 2382.582031 1788.230469 2355.601562 1873.71875 2340.058594 C 1873.179688 2464.636719 1923.089844 2697.972656 2323.710938 2682.265625 C 2666.441406 2668.828125 2816.628906 2497.90625 2879.75 2380.234375 C 3051.621094 2458.335938 3269.199219 2573.140625 3341.53125 2681.03125 "/>
<path fill-rule="evenodd" fill="rgb(0%, 8.616638%, 21.946716%)" fill-opacity="1" d="M 2077.988281 2236.78125 C 2049.75 2239.460938 1624.621094 2274.839844 1554.769531 1985.449219 C 1482.511719 1686.101562 1592.621094 1631.050781 1623.578125 1235.359375 C 1654.550781 839.671875 1816.269531 395.820312 2384 464.628906 C 2951.730469 533.449219 3192.601562 1145.921875 3240.761719 1534.730469 C 3288.929688 1923.539062 3182.28125 2099.019531 3027.441406 2136.871094 C 2872.601562 2174.71875 2650.671875 2183.320312 2650.671875 2183.320312 L 2607.609375 1804.851562 C 2607.609375 1804.851562 2609.328125 1803.128906 2621.371094 1782.480469 C 2633.410156 1761.839844 2678.160156 1663.769531 2678.160156 1663.769531 C 2678.160156 1663.769531 2757.300781 1665.488281 2853.640625 1636.238281 C 2949.988281 1606.988281 2992.988281 1262.921875 2851.921875 1192.378906 C 2710.839844 1121.839844 2635.148438 1326.570312 2604.179688 1352.378906 C 2573.210938 1378.179688 2526.761719 1326.570312 2526.761719 1326.570312 L 2526.761719 1139.050781 C 2526.761719 1139.050781 2511.28125 1156.25 2272.140625 1130.441406 C 2033 1104.640625 1774.949219 844.859375 1774.949219 844.859375 C 1774.949219 844.859375 1685.511719 1493.441406 1733.679688 1710.21875 C 1781.851562 1926.988281 2100.128906 2043.96875 2100.128906 2043.96875 L 2077.988281 2236.78125 "/>
</svg>
