<?xml version="1.0" encoding="UTF-8"?>
<svg xmlns="http://www.w3.org/2000/svg" xmlns:xlink="http://www.w3.org/1999/xlink" width="4713" height="3361" viewBox="0 0 4713 3361">
<path fill-rule="evenodd" fill="rgb(100%, 100%, 100%)" fill-opacity="1" d="M 0.625 0.308594 L 4712.890625 0.308594 L 4712.890625 3360.304688 L 0.625 3360.304688 L 0.625 0.308594 "/>
<path fill-rule="evenodd" fill="rgb(97.65625%, 70.896912%, 10.984802%)" fill-opacity="1" d="M 2356.761719 279.25 C 3113.730469 279.25 3727.378906 892.898438 3727.378906 1649.871094 C 3727.378906 2406.84375 3113.730469 3020.488281 2356.761719 3020.488281 C 1599.789062 3020.488281 986.144531 2406.84375 986.144531 1649.871094 C 986.144531 892.898438 1599.789062 279.25 2356.761719 279.25 "/>
<path fill-rule="evenodd" fill="rgb(11.767578%, 80.859375%, 90.625%)" fill-opacity="1" d="M 3119.441406 2788.8125 C 2901.398438 2935.109375 2639.058594 3020.488281 2356.761719 3020.488281 C 2096.980469 3020.488281 1854.078125 2948.203125 1647.070312 2822.664062 C 1674.28125 2793.648438 1711.050781 2758.71875 1760.699219 2717.929688 C 1930.140625 2578.75 2188.839844 2563.621094 2188.839844 2563.621094 L 2200.941406 2398.722656 C 2200.941406 2398.722656 2080.671875 2344.261719 2005.03125 2286.019531 C 1929.378906 2227.769531 1897.621094 2170.289062 1897.621094 2170.289062 C 1897.621094 2170.289062 1764.480469 2097.671875 1672.960938 1987.988281 C 1581.429688 1878.308594 1592.019531 1826.878906 1592.019531 1826.878906 C 1592.019531 1826.878906 1559.5 1823.851562 1533.78125 1708.878906 C 1508.058594 1593.898438 1530.75 1460.769531 1542.859375 1436.570312 C 1554.960938 1412.359375 1559.5 1407.820312 1559.5 1407.820312 C 1559.5 1407.820312 1495.851562 814.441406 1910.46875 547.03125 C 2325.089844 279.609375 2685.03125 456.261719 2751.601562 528.871094 C 2818.160156 601.488281 2827.238281 634.769531 2827.238281 634.769531 C 2827.238281 634.769531 3020.878906 571.230469 3154.011719 852.621094 C 3287.140625 1134 3217.550781 1454.71875 3217.550781 1454.71875 C 3217.550781 1454.71875 3255.371094 1465.308594 3249.320312 1581.800781 C 3243.269531 1698.289062 3175.191406 1849.570312 3175.191406 1849.570312 C 3175.191406 1849.570312 3156.28125 1932.019531 3066.269531 2024.300781 C 2976.25 2116.578125 2851.449219 2166.511719 2851.449219 2166.511719 C 2851.449219 2166.511719 2780.339844 2275.429688 2706.96875 2326.109375 C 2633.601562 2376.792969 2581.410156 2393.433594 2581.410156 2393.433594 L 2576.871094 2556.0625 C 2576.871094 2556.0625 2961.429688 2659.066406 3119.441406 2788.8125 "/>
<path fill-rule="evenodd" fill="rgb(100%, 85.546875%, 82.421875%)" fill-opacity="1" d="M 2059.390625 2583.628906 C 2134.53125 2566.804688 2188.839844 2563.621094 2188.839844 2563.621094 L 2200.941406 2398.722656 C 2200.941406 2398.722656 2080.671875 2344.261719 2005.03125 2286.019531 C 1929.378906 2227.769531 1897.621094 2170.289062 1897.621094 2170.289062 C 1897.621094 2170.289062 1764.480469 2097.671875 1672.960938 1987.988281 C 1581.429688 1878.308594 1592.019531 1826.878906 1592.019531 1826.878906 C 1592.019531 1826.878906 1559.5 1823.851562 1533.78125 1708.878906 C 1508.058594 1593.898438 1530.75 1460.769531 1542.859375 1436.570312 C 1554.960938 1412.359375 1559.5 1407.820312 1559.5 1407.820312 C 1559.5 1407.820312 1546.878906 1289.859375 1569.589844 1135.460938 C 1608.039062 1108.679688 1648.941406 1081.230469 1692.601562 1053.078125 C 2243.71875 697.679688 2860.539062 872.789062 3233.460938 1179.058594 C 3243.371094 1335.699219 3217.550781 1454.71875 3217.550781 1454.71875 C 3217.550781 1454.71875 3255.371094 1465.308594 3249.320312 1581.800781 C 3243.269531 1698.289062 3175.191406 1849.570312 3175.191406 1849.570312 C 3175.191406 1849.570312 3156.28125 1932.019531 3066.269531 2024.300781 C 2976.25 2116.578125 2851.449219 2166.511719 2851.449219 2166.511719 C 2851.449219 2166.511719 2780.339844 2275.429688 2706.96875 2326.109375 C 2633.601562 2376.792969 2581.410156 2393.433594 2581.410156 2393.433594 L 2576.871094 2556.0625 C 2576.871094 2556.0625 2630.628906 2570.464844 2706.199219 2595.273438 C 2667.359375 2692.8125 2586.28125 2807.894531 2418.761719 2821.570312 C 2211.628906 2838.480469 2104.921875 2680.457031 2059.390625 2583.628906 "/>
<path fill-rule="evenodd" fill="rgb(79.6875%, 56.054688%, 36.473083%)" fill-opacity="1" d="M 2581.410156 2393.433594 L 2578.308594 2504.230469 C 2555.199219 2510.738281 2522.699219 2514.65625 2477 2512.953125 C 2314.371094 2506.902344 2225.109375 2404.785156 2225.109375 2404.785156 C 2225.109375 2404.785156 2293.191406 2457.734375 2402.121094 2450.929688 C 2511.039062 2444.121094 2581.410156 2393.433594 2581.410156 2393.433594 "/>
<path fill-rule="evenodd" fill="rgb(29.80957%, 13.719177%, 6.665039%)" fill-opacity="1" d="M 1897.621094 2170.289062 C 1897.621094 2170.289062 1764.480469 2097.671875 1672.960938 1987.988281 C 1581.429688 1878.308594 1592.019531 1826.878906 1592.019531 1826.878906 C 1586.148438 1823.21875 1580.089844 1818.46875 1573.929688 1812.78125 C 1584.550781 1826.171875 1592.019531 1826.878906 1592.019531 1826.878906 C 1668.429688 1874.519531 1744.808594 1835.199219 1744.808594 1835.199219 C 1744.808594 1835.199219 1759.179688 1943.371094 1789.441406 2002.371094 C 1819.691406 2061.371094 1897.621094 2170.289062 1897.621094 2170.289062 Z M 1559.5 1407.820312 C 1559.5 1407.820312 1495.851562 814.441406 1910.46875 547.03125 C 2325.089844 279.609375 2685.03125 456.261719 2751.601562 528.871094 C 2818.160156 601.488281 2827.238281 634.769531 2827.238281 634.769531 C 2827.238281 634.769531 3020.878906 571.230469 3154.011719 852.621094 C 3287.140625 1134 3217.550781 1454.71875 3217.550781 1454.71875 C 3092 1419.171875 3046.578125 1785.28125 3046.578125 1785.28125 C 3046.578125 1785.28125 3042.050781 1683.921875 3014.808594 1608.28125 C 2987.578125 1532.640625 2901.359375 1464.558594 2828.738281 1407.078125 C 2756.121094 1349.589844 2748.558594 1086.359375 2745.53125 1066.691406 C 2742.511719 1047.019531 2663.839844 1278.488281 2529.199219 1346.558594 C 2394.558594 1414.640625 2045.101562 1276.96875 1898.359375 1360.179688 C 1751.609375 1443.378906 1734.96875 1755.03125 1734.96875 1755.03125 C 1734.96875 1755.03125 1716.820312 1637.03125 1675.96875 1522.050781 C 1635.128906 1407.078125 1559.5 1407.820312 1559.5 1407.820312 Z M 3203.621094 1777.621094 C 3188.359375 1820.308594 3175.191406 1849.570312 3175.191406 1849.570312 C 3175.191406 1849.570312 3156.28125 1932.019531 3066.269531 2024.300781 C 2976.25 2116.578125 2851.449219 2166.511719 2851.449219 2166.511719 C 2851.449219 2166.511719 2901.351562 2118.101562 2954.300781 2036.410156 C 3007.25 1954.71875 3037.511719 1845.789062 3037.511719 1845.789062 C 3037.511719 1845.789062 3064.738281 1859.410156 3120.710938 1841.261719 C 3176.601562 1823.128906 3203.539062 1777.761719 3203.621094 1777.621094 "/>
</svg>
